<svg width="616" height="87" viewBox="0 0 616 87" fill="none" xmlns="http://www.w3.org/2000/svg">
<path d="M54.2597 16.6751L69.4223 16.2737C70.1261 16.255 70.7407 16.4949 71.266 16.9931C71.7914 17.4914 72.0634 18.0924 72.082 18.7962L73.7232 80.7905C73.7418 81.4942 73.502 82.1088 73.0037 82.6341C72.5054 83.1595 71.9044 83.4315 71.2007 83.4501L53.8308 83.91C53.127 83.9286 52.5124 83.6888 51.9871 83.1905C51.4617 82.6922 51.1897 82.0912 51.1711 81.3875L50.475 55.0927L44.4156 65.6247C43.4343 67.2513 42.2719 68.0823 40.9283 68.1179L34.2107 68.2957C32.8672 68.3313 31.6624 67.5629 30.5964 65.9905L23.9883 55.7938L24.6844 82.0886C24.703 82.7924 24.4632 83.407 23.9649 83.9323C23.4666 84.4577 22.8656 84.7297 22.1619 84.7483L4.79194 85.2081C4.08818 85.2268 3.47362 84.987 2.94825 84.4887C2.42288 83.9904 2.15088 83.3894 2.13225 82.6856L0.491112 20.6914C0.472482 19.9876 0.712303 19.3731 1.21057 18.8477C1.70885 18.3223 2.30986 18.0503 3.01361 18.0317L18.1763 17.6303C19.9677 17.5829 21.3661 18.4101 22.3714 20.1121L36.8963 42.7757L50.2017 19.3754C51.1156 17.6226 52.4683 16.7225 54.2597 16.6751ZM106.943 15.2804L127.768 14.7291C130.071 14.6682 131.538 15.6857 132.17 17.7817L155.191 78.4417C155.26 78.632 155.301 78.951 155.313 79.3989C155.323 79.7827 155.11 80.2045 154.674 80.6642C154.3 81.0582 153.825 81.2629 153.25 81.2781L135.496 81.7481C133.577 81.7989 132.308 81.0322 131.69 79.448L129.219 73.1752L108.586 73.7214L106.451 80.1162C105.917 81.7308 104.691 82.5636 102.771 82.6144L85.0176 83.0844C84.4418 83.0996 83.9249 82.9212 83.4669 82.5492C83.0712 82.1115 82.8682 81.7008 82.8581 81.3169C82.8462 80.8691 82.8697 80.5483 82.9286 80.3547L102.708 18.5616C103.228 16.4351 104.64 15.3414 106.943 15.2804ZM112.985 54.8784L123.829 54.5913L117.887 36.8864L112.985 54.8784ZM227.267 76.1496C227.467 76.4644 227.574 76.8777 227.588 77.3895C227.6 77.8374 227.388 78.2911 226.952 78.7508C226.578 79.1449 226.103 79.3495 225.527 79.3647L203.647 79.944C201.792 79.9931 200.461 79.2921 199.654 77.8409L187.392 57.2302L187.936 77.767C187.955 78.4707 187.715 79.0853 187.216 79.6107C186.718 80.136 186.117 80.408 185.413 80.4267L167.084 80.9119C166.38 80.9305 165.766 80.6907 165.24 80.1924C164.715 79.6941 164.443 79.0931 164.424 78.3894L162.783 16.3951C162.764 15.6913 163.004 15.0768 163.502 14.5514C164.001 14.026 164.602 13.754 165.306 13.7354L183.635 13.2502C184.339 13.2316 184.953 13.4714 185.479 13.9696C186.004 14.4679 186.276 15.0689 186.295 15.7727L186.798 34.774L197.126 15.0058C197.793 13.5796 199.054 12.842 200.909 12.7929L222.118 12.2315C222.693 12.2162 223.179 12.4274 223.575 12.8651C224.033 13.2371 224.269 13.679 224.282 14.1909C224.294 14.6387 224.208 15.0251 224.025 15.3501L207.518 44.7892L227.267 76.1496ZM258.85 59.756L288.408 58.9736C289.112 58.9549 289.726 59.1948 290.252 59.693C290.777 60.1913 291.049 60.7923 291.068 61.4961L291.426 75.0273C291.445 75.7311 291.205 76.3456 290.706 76.871C290.208 77.3964 289.607 77.6684 288.903 77.687L238.905 79.0106C238.201 79.0292 237.587 78.7894 237.061 78.2911C236.536 77.7929 236.264 77.1919 236.245 76.4881L234.604 14.4938C234.585 13.7901 234.825 13.1755 235.324 12.6501C235.822 12.1248 236.423 11.8528 237.127 11.8341L286.357 10.5309C287.061 10.5122 287.676 10.7521 288.201 11.2503C288.726 11.7486 288.998 12.3496 289.017 13.0534L289.375 26.5846C289.394 27.2884 289.154 27.9029 288.656 28.4283C288.158 28.9537 287.556 29.2257 286.853 29.2443L258.063 30.0065L258.223 36.0523L284.902 35.3461C285.605 35.3275 286.22 35.5673 286.745 36.0656C287.271 36.5638 287.543 37.1648 287.561 37.8686L287.891 50.3442C287.91 51.048 287.67 51.6625 287.172 52.1879C286.674 52.7133 286.073 52.9853 285.369 53.0039L258.69 53.7102L258.85 59.756ZM371.66 75.4962L352.851 75.9942C352.147 76.0128 351.532 75.773 351.007 75.2747C350.482 74.7764 350.21 74.1754 350.191 73.4717L349.691 54.5663L326.968 12.4329C326.833 12.1803 326.76 11.8302 326.748 11.3823C326.736 10.9345 326.917 10.5135 327.291 10.1195C327.727 9.65981 328.232 9.42233 328.808 9.40709L346.85 8.92948C348.769 8.87867 350.134 9.64283 350.944 11.2219L361.051 30.2571L370.137 10.7139C370.863 9.09409 372.185 8.2588 374.104 8.20799L392.146 7.73038C392.722 7.71514 393.208 7.92636 393.603 8.36404C394.061 8.73605 394.296 9.14598 394.308 9.59382C394.32 10.0417 394.265 10.3952 394.144 10.6545L373.682 53.9312L374.183 72.8366C374.201 73.5403 373.961 74.1549 373.463 74.6802C372.965 75.2056 372.364 75.4776 371.66 75.4962ZM409.835 13.4083C415.596 8.5181 423.306 5.94516 432.967 5.68942C442.628 5.43367 450.432 7.6279 456.381 12.2721C462.393 16.8506 465.513 23.4584 465.741 32.0954L466.138 47.0661C466.37 55.831 463.636 62.5938 457.936 67.3543C452.298 72.0491 444.585 74.5261 434.796 74.7852C425.008 75.0443 417.142 72.9798 411.2 68.5915C405.32 64.1375 402.264 57.5281 402.032 48.7631L401.636 33.7924C401.405 25.0914 404.139 18.2967 409.835 13.4083ZM429.068 54.2896C430.381 55.5353 432.126 56.1294 434.301 56.0718C436.476 56.0142 438.187 55.3287 439.432 54.0153C440.678 52.7018 441.266 50.7336 441.197 48.1105L440.77 31.9881C440.702 29.429 440.011 27.5266 438.698 26.281C437.383 24.9713 435.638 24.3453 433.462 24.4029C431.287 24.4604 429.578 25.1779 428.334 26.5553C427.088 27.8688 426.499 29.805 426.567 32.3641L426.994 48.4865C427.063 51.1096 427.754 53.0439 429.068 54.2896ZM516.849 4.42919L535.658 3.93126C536.362 3.91263 536.977 4.15245 537.502 4.65072C538.028 5.14899 538.3 5.75 538.318 6.45376L539.339 45.0322C539.577 53.9891 536.972 60.8124 531.526 65.5022C526.079 70.1279 518.557 72.5679 508.96 72.8219C499.428 73.0743 491.787 71.0357 486.038 66.7064C480.354 62.3753 477.392 55.6993 477.153 46.6785L476.132 8.09998C476.113 7.39623 476.353 6.78167 476.851 6.25629C477.35 5.73092 477.951 5.45892 478.654 5.44029L497.464 4.94236C498.168 4.92373 498.782 5.16355 499.308 5.66183C499.833 6.1601 500.105 6.76111 500.124 7.46486L501.152 46.3312C501.283 51.2575 503.715 53.658 508.45 53.5327C513.184 53.4073 515.486 50.8815 515.355 45.9553L514.327 7.08887C514.308 6.38512 514.548 5.77056 515.046 5.24519C515.544 4.71982 516.145 4.44782 516.849 4.42919ZM614.684 65.8937C614.886 66.2725 614.993 66.6858 615.005 67.1336C615.017 67.5815 614.805 68.0352 614.369 68.4949C613.995 68.889 613.52 69.0936 612.944 69.1089L593.271 69.6296C591.288 69.6822 589.89 68.8549 589.076 67.1478L580.338 49.0367L576.403 49.1409L576.888 67.4704C576.907 68.1742 576.667 68.7888 576.169 69.3141C575.671 69.8395 575.07 70.1115 574.366 70.1301L555.556 70.6281C554.853 70.6467 554.238 70.4069 553.713 69.9086C553.187 69.4103 552.915 68.8093 552.897 68.1056L551.256 6.11127C551.237 5.40752 551.477 4.79296 551.975 4.26758C552.473 3.74221 553.074 3.47021 553.778 3.45158L582.184 2.69961C591.397 2.45572 598.65 4.34446 603.942 8.36581C609.232 12.3232 611.98 18.1725 612.185 25.9138C612.388 33.5911 609.094 39.7285 602.301 44.3258L614.684 65.8937ZM575.651 20.7348L575.92 30.9072L582.926 30.7218C584.334 30.6845 585.409 30.2079 586.153 29.2919C586.896 28.3119 587.248 27.1182 587.211 25.7106C587.174 24.3031 586.758 23.0977 585.963 22.0944C585.23 21.0254 584.128 20.5104 582.657 20.5494L575.651 20.7348Z" fill="#4700FF"/>
</svg>
